<svg width="18" height="23" viewBox="0 0 18 23" fill="none" xmlns="http://www.w3.org/2000/svg">
<circle cx="9" cy="5" r="4.5" stroke="#83665B"/>
<mask id="path-2-inside-1_2033_735" fill="white">
<path d="M18 19C18 17.9494 17.7672 16.9091 17.3149 15.9385C16.8626 14.9679 16.1997 14.086 15.364 13.3431C14.5282 12.6003 13.5361 12.011 12.4442 11.609C11.3522 11.2069 10.1819 11 9 11C7.8181 11 6.64778 11.2069 5.55585 11.609C4.46392 12.011 3.47177 12.6003 2.63604 13.3431C1.80031 14.086 1.13738 14.9679 0.685084 15.9385C0.232792 16.9091 -1.03325e-07 17.9494 0 19H1.04275C1.04275 18.0711 1.24857 17.1514 1.64846 16.2932C2.04835 15.4351 2.63447 14.6554 3.37337 13.9986C4.11227 13.3418 4.98947 12.8208 5.95489 12.4653C6.92031 12.1098 7.95504 11.9269 9 11.9269C10.045 11.9269 11.0797 12.1098 12.0451 12.4653C13.0105 12.8208 13.8877 13.3418 14.6266 13.9986C15.3655 14.6554 15.9517 15.4351 16.3515 16.2932C16.7514 17.1514 16.9573 18.0711 16.9573 19H18Z"/>
</mask>
<path d="M18 19C18 17.9494 17.7672 16.9091 17.3149 15.9385C16.8626 14.9679 16.1997 14.086 15.364 13.3431C14.5282 12.6003 13.5361 12.011 12.4442 11.609C11.3522 11.2069 10.1819 11 9 11C7.8181 11 6.64778 11.2069 5.55585 11.609C4.46392 12.011 3.47177 12.6003 2.63604 13.3431C1.80031 14.086 1.13738 14.9679 0.685084 15.9385C0.232792 16.9091 -1.03325e-07 17.9494 0 19H1.04275C1.04275 18.0711 1.24857 17.1514 1.64846 16.2932C2.04835 15.4351 2.63447 14.6554 3.37337 13.9986C4.11227 13.3418 4.98947 12.8208 5.95489 12.4653C6.92031 12.1098 7.95504 11.9269 9 11.9269C10.045 11.9269 11.0797 12.1098 12.0451 12.4653C13.0105 12.8208 13.8877 13.3418 14.6266 13.9986C15.3655 14.6554 15.9517 15.4351 16.3515 16.2932C16.7514 17.1514 16.9573 18.0711 16.9573 19H18Z" stroke="#83665B" stroke-width="10" mask="url(#path-2-inside-1_2033_735)"/>
</svg>
