<svg width="19" height="22" viewBox="0 0 19 22" fill="none" xmlns="http://www.w3.org/2000/svg">
<path d="M18.5 5.5V19C18.5 20.3807 17.3807 21.5 16 21.5H3C1.61929 21.5 0.5 20.3807 0.5 19V5.5H18.5Z" stroke="#83665B"/>
<mask id="path-2-inside-1_2033_732" fill="white">
<path d="M14 4C14 3.47471 13.8965 2.95457 13.6955 2.46927C13.4945 1.98396 13.1999 1.54301 12.8284 1.17157C12.457 0.800138 12.016 0.505501 11.5307 0.304482C11.0454 0.103463 10.5253 -2.2961e-08 10 0C9.47471 2.2961e-08 8.95457 0.103463 8.46927 0.304482C7.98396 0.505501 7.54301 0.800139 7.17157 1.17157C6.80014 1.54301 6.5055 1.98396 6.30448 2.46927C6.10346 2.95457 6 3.47471 6 4L10 4H14Z"/>
</mask>
<path d="M14 4C14 3.47471 13.8965 2.95457 13.6955 2.46927C13.4945 1.98396 13.1999 1.54301 12.8284 1.17157C12.457 0.800138 12.016 0.505501 11.5307 0.304482C11.0454 0.103463 10.5253 -2.2961e-08 10 0C9.47471 2.2961e-08 8.95457 0.103463 8.46927 0.304482C7.98396 0.505501 7.54301 0.800139 7.17157 1.17157C6.80014 1.54301 6.5055 1.98396 6.30448 2.46927C6.10346 2.95457 6 3.47471 6 4L10 4H14Z" stroke="#83665B" stroke-width="2" mask="url(#path-2-inside-1_2033_732)"/>
</svg>
