<svg aria-hidden="true" style="position: absolute; width: 0; height: 0; overflow: hidden;" version="1.1" xmlns="http://www.w3.org/2000/svg" xmlns:xlink="http://www.w3.org/1999/xlink">
<defs>
<symbol id="icon-drops" viewBox="0 0 32 32">
<path d="M15.673 17.876c-0.009-4.231-2.82-7.53-5.086-10.482-0.236-0.315-0.464-0.633-0.682-0.954-0.074-0.114-0.13-0.205-0.13-0.205-0.145-0.22-0.292-0.44-0.422-0.666-0.343-0.642-1.053-0.948-1.387-0.301-0.373 0.742-0.723 1.35-1.103 1.937l0.049-0.080c-1.905 3.131-4.467 6.435-4.526 10.752-0.088 8.279 13.711 7.901 13.287 0zM4.23 17.876c0.113-3.372 2.448-6.445 4.53-9.563 0.219-0.33 0.438-0.666 0.652-1.014 0.142 0.213 0.282 0.427 0.428 0.635 2.245 3.096 4.676 6.256 4.549 9.942 0.286 6.171-10.781 5.794-10.159 0z"></path>
<path d="M29.735 21.646c0.072-8.555-6.46-14.524-10.237-20.734-0.099-0.246-0.336-0.417-0.613-0.417-0.287 0-0.531 0.183-0.622 0.439l-0.001 0.005c-0.816 1.803-1.897 3.559-2.927 5.334-0.481 0.823-0.96 1.65-1.425 2.487-0.035 0.061-0.055 0.135-0.055 0.213 0 0.038 0.005 0.075 0.014 0.11l-0.001-0.003c0.048 0.184 0.212 0.318 0.408 0.318 0.036 0 0.071-0.005 0.104-0.013l-0.003 0.001c0.111-0.028 0.202-0.095 0.261-0.186l0.001-0.002c0.514-0.797 1.041-1.586 1.571-2.376 0.909-1.367 1.843-2.724 2.684-4.177 3.749 6.376 8.904 11.923 8.662 19.002 0.002 0.064 0.003 0.139 0.003 0.214 0 3.252-2.044 6.027-4.918 7.11l-0.052 0.017c-1.091 0.434-2.355 0.686-3.678 0.686-2.31 0-4.441-0.768-6.151-2.063l0.026 0.019c-0.691-0.563-1.275-1.222-1.742-1.963l-0.020-0.033c-0.057-0.092-0.142-0.162-0.244-0.197l-0.003-0.001c-0.039-0.014-0.084-0.021-0.131-0.021-0.179 0-0.331 0.113-0.389 0.272l-0.001 0.003c-0.017 0.046-0.026 0.099-0.026 0.154 0 0.059 0.011 0.115 0.031 0.166l-0.001-0.003c0.384 1.005 0.92 1.869 1.587 2.611l-0.007-0.008c2.807 3.118 7.611 3.999 11.558 2.499 3.738-1.446 6.341-5.012 6.341-9.186 0-0.096-0.001-0.193-0.004-0.288l0 0.014z"></path>
</symbol>
<symbol id="icon-eye" viewBox="0 0 32 32">
<path d="M15.977 27.608c-8.115 0-14.526-4.57-15.953-11.373-0.015-0.070-0.024-0.151-0.024-0.234 0-0.084 0.009-0.167 0.026-0.246l-0.001 0.008c1.426-6.799 7.837-11.37 15.952-11.37s14.527 4.57 15.953 11.373c0.015 0.071 0.024 0.152 0.024 0.235 0 0.085-0.009 0.168-0.027 0.248l0.001-0.008c-1.425 6.797-7.836 11.368-15.952 11.368zM1.9 16c1.306 5.827 6.94 9.726 14.078 9.726 7.14 0 12.775-3.901 14.078-9.726-1.305-5.826-6.94-9.726-14.078-9.726s-12.774 3.902-14.078 9.726zM30.087 16.15l0.001 0.005zM1.868 16.147l-0.001 0.005zM30.088 15.849l-0.002 0.008zM1.866 15.843l0.002 0.008z"></path>
<path d="M15.977 21.334c-2.946 0-5.333-2.388-5.333-5.333s2.388-5.333 5.333-5.333c2.946 0 5.333 2.388 5.333 5.333v0c-0.004 2.944-2.389 5.33-5.333 5.333h-0z"></path>
</symbol>
<symbol id="icon-facebook" viewBox="0 0 32 32">
<path d="M25.333 0.888v-0.578l-0.572-0.082c-0.801-0.169-1.722-0.266-2.665-0.266-2.208 0-4.292 0.531-6.131 1.473l0.076-0.035c-2.829 1.69-4.81 5.145-4.707 11.489-1.903 0-1.651 0-4.668 0h-0.666v8h5.333v11.333h8v-11.333h5.333v-8h-5.341c-0.010-0.648-0.023-1.292 0.008-1.938 0.004-0.793 0.165-1.546 0.452-2.234l-0.014 0.039c0.262-0.583 0.749-1.026 1.349-1.222l0.016-0.004c0.503-0.136 1.080-0.214 1.676-0.214 0.614 0 1.208 0.083 1.773 0.238l-0.047-0.011c0.039 0.008 0.084 0.013 0.131 0.013 0.368 0 0.666-0.298 0.667-0.666v-0c-0.001-2.667-0.001-2.001-0.001-6.001zM20.699 6.269c-0.958 0.321-1.719 1.011-2.127 1.897l-0.009 0.022c-0.345 0.796-0.551 1.723-0.563 2.696l-0 0.005c-0.043 0.904-0.001 1.878-0.001 2.667v0.667h5.333v5.333h-5.333v11.333h-5.333v-11.333h-5.333v-5.333c2.582 0 2.195 0 4.667 0h0.693l-0.027-0.693c-0.261-6.525 1.693-9.571 4.059-10.984 1.525-0.786 3.327-1.247 5.237-1.247 0.72 0 1.425 0.065 2.109 0.191l-0.071-0.011c0 2.947 0 2.947 0 4.633-0.396-0.078-0.851-0.122-1.317-0.122-0.707 0-1.39 0.102-2.034 0.293l0.051-0.013z"></path>
</symbol>
<symbol id="icon-flower" viewBox="0 0 32 32">
<path d="M27.211 21.917c-2.419 0.156-4.896 0.304-7.236 1.419-1.94 0.851-2.869 2.795-3.239 4.706v-7.966c1.008 1.232 2.504 2.032 4.188 2.104l0.012 0c0.045 0.001 0.098 0.002 0.151 0.002 3.343 0 6.053-2.71 6.053-6.053 0-1.946-0.919-3.678-2.346-4.786l-0.014-0.010c1.496-1.11 2.456-2.872 2.456-4.857 0-0.003 0-0.006 0-0.008v0c-0.022-3.365-2.754-6.084-6.122-6.084-0.063 0-0.125 0.001-0.187 0.003l0.009-0c-2.017 0.096-3.755 1.21-4.719 2.837l-0.015 0.027c-0.223-0.412-0.477-0.767-0.77-1.087l0.004 0.004c-1.114-1.192-2.695-1.935-4.451-1.935-3.361 0-6.085 2.724-6.085 6.085 0 1.755 0.743 3.337 1.932 4.448l0.003 0.003c0.192 0.176 0.401 0.342 0.622 0.491l0.019 0.012c-1.603 1.105-2.64 2.93-2.641 4.997v0c0.022 3.365 2.754 6.084 6.122 6.084 0.063 0 0.125-0.001 0.187-0.003l-0.009 0c1.694-0.077 3.188-0.875 4.192-2.092l0.008-0.010v7.791c-0.37-1.911-1.299-3.855-3.239-4.706-2.34-1.116-4.817-1.263-7.236-1.42l-0.763-0.021 0.086 0.743c0.224 2.614 1.208 5.373 3.345 7.185 1.511 1.261 3.475 2.027 5.617 2.027 0.216 0 0.43-0.008 0.643-0.023l-0.028 0.002c0.576-0.033 1.114-0.119 1.634-0.253l-0.058 0.013v0.082h1.4v-0.082c0.461 0.121 1 0.206 1.553 0.239l0.023 0.001c0.184 0.014 0.398 0.021 0.614 0.021 2.142 0 4.105-0.766 5.631-2.038l-0.014 0.011c2.137-1.813 3.122-4.571 3.345-7.185l0.086-0.743zM13.784 30.989c-2.051-0.216-3.882-1.021-5.358-2.241l0.017 0.014c-1.521-1.404-2.557-3.313-2.841-5.46l-0.005-0.046c0.044-0 0.095-0.001 0.147-0.001 2.116 0 4.144 0.379 6.020 1.072l-0.12-0.039c2.133 0.821 2.973 3.171 3.256 5.5 0.059 0.423 0.102 0.845 0.145 1.271-0.015 0-0.033 0-0.050 0-0.426 0-0.846-0.026-1.259-0.075l0.050 0.005zM20.937 1.57c0.001 0 0.002 0 0.002 0 2.705 0 4.898 2.193 4.898 4.898 0 1.716-0.883 3.226-2.219 4.101l-0.019 0.011c-0.747-0.385-1.63-0.611-2.566-0.611-0.034 0-0.067 0-0.101 0.001l0.005-0c-0.024-0-0.052-0.001-0.081-0.001-0.548 0-1.075 0.086-1.57 0.246l0.036-0.010c-0.059-0.164-0.119-0.299-0.187-0.43l0.009 0.019c-0.008-0.016-0.017-0.032-0.026-0.048-0.145-0.274-0.312-0.511-0.504-0.724l0.003 0.003-0.001-0.001c-0.090-0.098-0.183-0.188-0.281-0.273l-0.004-0.004c-0.039-0.034-0.079-0.066-0.119-0.098-0.181-0.147-0.385-0.28-0.601-0.391l-0.020-0.009c-0.027-0.013-0.052-0.030-0.079-0.043-0.086-0.041-0.196-0.085-0.309-0.123l-0.024-0.007c-0.067-0.024-0.136-0.044-0.205-0.064-0.090-0.029-0.208-0.058-0.327-0.081l-0.021-0.003c0.194-0.554 0.305-1.193 0.305-1.858 0-0.682-0.118-1.336-0.334-1.944l0.013 0.041c0.841-1.558 2.461-2.599 4.325-2.599 0 0 0 0 0 0h-0zM7.671 3.005c0.887-0.887 2.112-1.436 3.465-1.436 2.026 0 3.765 1.23 4.51 2.984l0.012 0.032c-0.013 0.052-0.030 0.104-0.041 0.157-0.085 0.356-0.134 0.765-0.134 1.186 0 0.191 0.010 0.38 0.030 0.566l-0.002-0.023c-0.014 0.145-0.022 0.314-0.022 0.484 0 0.34 0.032 0.673 0.093 0.995l-0.005-0.033c-0.195 0.026-0.368 0.064-0.535 0.114l0.024-0.006-0.009 0.003c-0.513 0.153-0.957 0.404-1.329 0.734l0.004-0.003h-0c-0.121 0.108-0.232 0.221-0.335 0.34l-0.004 0.005c-0.012 0.014-0.022 0.027-0.034 0.041-0.311 0.37-0.549 0.813-0.684 1.299l-0.006 0.024c-0.454-0.157-0.979-0.257-1.524-0.277l-0.009-0c-0.105-0.007-0.227-0.011-0.351-0.011-0.797 0-1.555 0.173-2.236 0.484l0.034-0.014c-1.421-0.871-2.354-2.415-2.354-4.178 0-1.354 0.551-2.58 1.441-3.464l0-0zM11.136 11.37v0zM15.336 18.785c-0.871 1.437-2.426 2.383-4.203 2.383-2.705 0-4.898-2.193-4.898-4.898 0-1.864 1.041-3.484 2.573-4.312l0.026-0.013c0.567 0.203 1.221 0.321 1.902 0.321 0.663 0 1.299-0.111 1.892-0.316l-0.041 0.012c0.004 0.024 0.010 0.048 0.015 0.072 0.014 0.071 0.038 0.138 0.056 0.207 0.041 0.166 0.085 0.305 0.137 0.44l-0.008-0.024c0.031 0.077 0.069 0.15 0.105 0.224 0.065 0.138 0.128 0.251 0.196 0.36l-0.009-0.015c0.046 0.073 0.095 0.142 0.146 0.21 0.081 0.11 0.161 0.206 0.246 0.297l-0.002-0.002c0.058 0.063 0.116 0.124 0.178 0.183 0.091 0.084 0.189 0.166 0.292 0.242l0.009 0.007c0.066 0.049 0.129 0.1 0.198 0.144 0.104 0.067 0.227 0.135 0.355 0.195l0.021 0.009c0.063 0.031 0.123 0.067 0.188 0.094 0.111 0.045 0.249 0.090 0.391 0.127l0.024 0.005c0.128 0.084 0.209 0.132 0.209 0.132zM13.281 11.37c0-1.522 1.234-2.756 2.756-2.756s2.756 1.234 2.756 2.756c0 1.522-1.234 2.756-2.756 2.756v0c-1.522 0-2.756-1.234-2.756-2.756v0zM16.736 14.871c0-0.029 0-0.060-0.001-0.070l0.003-0.001c0.015-0.003 0.028-0.009 0.042-0.012 0.223-0.049 0.416-0.111 0.6-0.188l-0.023 0.008c0.067-0.027 0.128-0.064 0.192-0.095 0.148-0.069 0.27-0.137 0.387-0.211l-0.014 0.008c0.069-0.045 0.133-0.095 0.199-0.145 0.112-0.083 0.21-0.164 0.303-0.25l-0.002 0.002c0.062-0.058 0.12-0.12 0.179-0.182 0.082-0.089 0.162-0.185 0.237-0.286l0.007-0.009c0.051-0.069 0.1-0.138 0.146-0.21 0.060-0.095 0.123-0.208 0.179-0.325l0.009-0.021c0.036-0.074 0.074-0.147 0.105-0.224 0.040-0.101 0.081-0.229 0.115-0.36l0.005-0.024c0.537 0.179 1.156 0.283 1.799 0.283 0.826 0 1.611-0.171 2.324-0.479l-0.038 0.015c1.418 0.875 2.348 2.419 2.348 4.181 0 2.704-2.192 4.897-4.897 4.897-1.777 0-3.334-0.947-4.192-2.364l-0.012-0.022v-3.915zM23.631 28.762c-1.459 1.206-3.29 2.012-5.297 2.224l-0.044 0.004c-0.362 0.045-0.782 0.070-1.207 0.070-0.018 0-0.037-0-0.055-0h0.003c0.042-0.427 0.086-0.848 0.145-1.271 0.283-2.329 1.123-4.679 3.256-5.5 1.755-0.654 3.783-1.033 5.9-1.033 0.052 0 0.103 0 0.154 0.001l-0.008-0c-0.289 2.192-1.326 4.102-2.84 5.5l-0.006 0.006z"></path>
</symbol>
<symbol id="icon-heart" viewBox="0 0 32 32">
<path d="M30.977 14.035l0.006-0.014-0.001 0.003z"></path>
<path d="M29.515 4.114c-2.685-2.599-6.763-2.532-9.722-1.183-1.326 0.602-2.469 1.339-3.486 2.216l0.018-0.016c-0.854-1.115-1.933-2.014-3.175-2.637l-0.053-0.024c-3.051-1.503-7.128-1.507-9.964 0.979-2.906 2.565-2.978 6.784-2.128 10.001l0.009 0.032c2.562 7.555 9.007 11.31 13.88 16.201q0.213 0.194 0.43 0.391c0.243 0.217 0.566 0.349 0.919 0.349 0.334 0 0.64-0.118 0.879-0.315l-0.002 0.002c5.212-4.707 10.616-9.192 13.859-16.089 1.244-3.083 1.271-7.322-1.466-9.91zM28.799 13.181c-2.683 5.29-7.768 9.819-12.531 14.042-4.832-4.614-10.965-8.633-12.995-14.409-0.843-2.839-0.813-6.013 1.178-7.952 1.948-1.952 5.363-2.297 8.090-1.163 1.325 0.543 2.432 1.386 3.274 2.449l0.013 0.017c0.090 0.134 0.242 0.222 0.414 0.222 0.127 0 0.243-0.048 0.331-0.126l-0 0c1.066-0.843 2.297-1.545 3.625-2.046l0.095-0.031c2.748-1.030 6.034-0.724 7.861 1.282 1.87 1.97 1.799 5.094 0.653 7.702z"></path>
</symbol>
<symbol id="icon-insta" viewBox="0 0 32 32">
<path d="M25.043 31.304h-18.087c-3.84-0.005-6.952-3.116-6.957-6.956v-16.696c0.005-3.84 3.116-6.952 6.956-6.957h18.087c3.84 0.005 6.952 3.116 6.957 6.956v16.696c-0.005 3.84-3.116 6.952-6.956 6.957h-0zM6.957 2.087c-3.072 0.003-5.562 2.493-5.565 5.565v16.696c0.003 3.072 2.493 5.562 5.565 5.565h18.087c3.072-0.003 5.562-2.493 5.565-5.565v-16.696c-0.003-3.072-2.493-5.562-5.565-5.565h-0z"></path>
<path d="M16 24.348c-4.226 0-7.652-3.426-7.652-7.652s3.426-7.652 7.652-7.652c4.226 0 7.652 3.426 7.652 7.652v0c-0.005 4.224-3.428 7.647-7.652 7.652h-0zM16 10.435c-3.458 0-6.261 2.803-6.261 6.261s2.803 6.261 6.261 6.261c3.458 0 6.261-2.803 6.261-6.261v0c-0.004-3.456-2.805-6.257-6.261-6.261h-0z"></path>
<path d="M23.652 10.435c-0.768 0-1.391-0.623-1.391-1.391s0.623-1.391 1.391-1.391c0.768 0 1.391 0.623 1.391 1.391v0c-0.001 0.768-0.623 1.391-1.391 1.391h-0zM23.652 8.348v0.696h0.001z"></path>
</symbol>
<symbol id="icon-leave" viewBox="0 0 32 32">
<path d="M26.441 0c0.564 1.16 1.106 2.554 1.541 3.994l0.054 0.209c0.749 2.147 1.181 4.622 1.181 7.197 0 1.846-0.222 3.64-0.641 5.357l0.032-0.154c-0.796 3.386-2.856 6.19-5.643 7.946l-0.053 0.031c-1.947 1.161-4.236 1.972-6.683 2.282l-0.087 0.009c-0.444 0.065-0.957 0.102-1.478 0.102-1.888 0-3.662-0.486-5.204-1.339l0.055 0.028c-1.178-0.645-2.189-1.419-3.066-2.323l-0.003-0.003c0.768-0.403 1.664-0.679 2.615-0.771l0.030-0.002c0.225-0.033 0.448-0.061 0.685-0.084 3.882-0.408 8.258-1.678 10.602-5.337 0.257-0.416 0.451-0.9 0.556-1.418l0.005-0.028c0.004-0.025 0.006-0.054 0.006-0.083 0-0.1-0.027-0.193-0.075-0.273l0.001 0.002c-0.083-0.14-0.233-0.233-0.405-0.233-0.084 0-0.163 0.022-0.231 0.061l0.002-0.001c-0.108 0.061-0.191 0.155-0.236 0.268l-0.001 0.004c-0.179 0.367-0.4 0.681-0.663 0.956l0.001-0.001c-2.465 2.48-6.224 3.174-9.797 3.506-0.285 0.024-0.556 0.056-0.833 0.097-1.315 0.186-2.5 0.601-3.564 1.206l0.049-0.026c-0.936-5.964 0.743-12.958 7.408-12.962 4.135-0.254 8.554-1.26 11.64-4.214 1.13-1.022 1.92-2.402 2.192-3.959l0.006-0.042c-0.455 1.445-0.742 2.403-3.022 4.138-3.249 2.175-7.197 2.827-11.348 2.786-3.96 0.232-6.679 1.913-8.248 5.913-1.544 4.102-0.654 8.943-0.446 9.741-0.222 0.231-0.43 0.481-0.619 0.745l-0.014 0.020c-0.915 1.338-1.462 2.991-1.462 4.771 0 0.615 0.065 1.216 0.189 1.794l-0.010-0.056c0.1 0.538 0.229 1.006 0.394 1.458l-0.020-0.062c0.043 0.118 0.123 0.215 0.226 0.277l0.002 0.001c0.069 0.042 0.153 0.067 0.242 0.067 0.167 0 0.313-0.087 0.397-0.218l0.001-0.002c0.052-0.081 0.082-0.18 0.082-0.286 0-0.023-0.001-0.046-0.004-0.069l0 0.003c-0.031-0.288-0.049-0.622-0.049-0.96 0-0.111 0.002-0.222 0.006-0.333l-0 0.016c-0.001-0.034-0.001-0.073-0.001-0.113 0-1.986 0.792-3.787 2.077-5.104l-0.001 0.001c2.049 2.205 6.19 5.334 11.881 4.441 2.854-0.45 5.399-1.508 7.589-3.037l-0.059 0.039c2.557-1.688 4.451-4.203 5.314-7.157l0.023-0.091c1.776-5.357 0.498-12.157-3.12-18.725z"></path>
</symbol>
<symbol id="icon-lips" viewBox="0 0 32 32">
<path d="M15.931 24.858c-6.814 0-14.438-5.839-15.297-8.705-0.786-2.921 0.887-5.586 4.584-7.334 3.606-1.705 8.627-2.137 10.809-0.288 3.309-2.078 9.039-0.867 12.636 1.746 2.57 1.867 3.569 4.125 2.741 6.195-1.45 3.77-8.877 8.386-15.473 8.386zM11.772 8.85c-2.147 0.030-4.172 0.526-5.987 1.39l0.087-0.037c-1.402 0.663-4.575 2.528-3.767 5.531 0.62 2.065 7.523 7.595 13.826 7.595 6.181 0 12.923-4.487 14.049-7.415 0.78-1.951-1.29-3.725-2.216-4.398-3.279-2.383-8.827-3.481-11.343-1.384-0.132 0.11-0.303 0.177-0.49 0.177-0.256 0-0.482-0.125-0.621-0.318l-0.002-0.002c-0.544-0.762-1.888-1.138-3.537-1.138zM3.918 15.678c-0 0-0.001 0-0.001 0-0.423 0-0.765-0.343-0.765-0.765 0-0.295 0.167-0.551 0.412-0.679l0.004-0.002c2.637-1.354 8.126-3.021 12.36-0.949 4.32-2.146 11.006-0.635 12.969 1.049 0.17 0.141 0.277 0.353 0.277 0.59 0 0.423-0.343 0.765-0.765 0.765-0.195 0-0.374-0.073-0.509-0.194l0.001 0.001c-1.518-1.301-7.836-2.808-11.593-0.68-0.108 0.062-0.238 0.099-0.377 0.099-0.136 0-0.264-0.035-0.374-0.097l0.004 0.002c-3.717-2.055-8.849-0.479-11.294 0.776-0.101 0.053-0.221 0.085-0.349 0.085h-0z"></path>
</symbol>
<symbol id="icon-mail" viewBox="0 0 32 32">
<path d="M29.412 2.353h-26.588c-1.559 0.002-2.822 1.265-2.824 2.823v21.412c0.002 1.559 1.265 2.822 2.823 2.824h26.588c1.559-0.002 2.822-1.265 2.824-2.823v-21.412c-0.002-1.559-1.265-2.822-2.823-2.824h-0zM30.353 26.588c0 0.52-0.421 0.941-0.941 0.941v0h-26.588c-0.52 0-0.941-0.421-0.941-0.941v0-21.412c0-0.52 0.421-0.941 0.941-0.941v0h26.588c0.52 0 0.941 0.421 0.941 0.941v0z"></path>
<path d="M27.784 5.475l-11.682 10.452-12.316-10.468c-0.16-0.131-0.367-0.21-0.593-0.21-0.52 0-0.941 0.421-0.941 0.941 0 0.279 0.121 0.529 0.314 0.702l0.001 0.001 13.567 11.532 12.906-11.548c0.189-0.173 0.307-0.42 0.307-0.695 0-0.52-0.421-0.941-0.941-0.941-0.239 0-0.456 0.089-0.622 0.235l0.001-0.001z"></path>
</symbol>
<symbol id="icon-moon" viewBox="0 0 32 32">
<path d="M31.506 15.059c-0.181-0.127-0.406-0.203-0.648-0.203-0.146 0-0.286 0.028-0.415 0.078l0.008-0.003c-2.801 1.065-10.712 3.19-13.641 0.26s-0.806-10.841 0.26-13.641c0.047-0.121 0.075-0.261 0.075-0.407 0-0.631-0.512-1.143-1.143-1.143-0 0-0 0-0 0v0c-8.836 0-15.998 7.163-15.998 15.999s7.163 15.999 15.999 15.999c8.836 0 15.998-7.163 15.999-15.998v-0c0-0 0-0 0-0 0-0.388-0.194-0.732-0.491-0.938l-0.004-0.002zM27.404 23.618c-2.495 3.696-6.669 6.094-11.402 6.094-7.574 0-13.714-6.14-13.714-13.714 0-7.003 5.248-12.779 12.026-13.611l0.066-0.007c-1.018 3.339-2.761 10.854 0.812 14.426s11.087 1.83 14.426 0.813c-0.274 2.263-1.063 4.299-2.246 6.046l0.031-0.048z"></path>
</symbol>
<symbol id="icon-people" viewBox="0 0 32 32">
<path d="M31.1 22.405c-1.203-2.715-4.518-3.502-6.79-3.142-0.274 0.030-0.526 0.070-0.799 0.118-0.109 0.019-0.204 0.071-0.276 0.146l-0 0c-0.071 0.073-0.114 0.173-0.114 0.283s0.044 0.21 0.114 0.283l-0-0c0.072 0.074 0.167 0.127 0.273 0.146l0.003 0c0.26 0.048 0.495 0.098 0.747 0.152 2.243 0.473 4.039 1.334 4.793 3.028 0.825 1.711 1.092 4.026 1.513 6.291 0.046 0.257 0.091 0.506 0.139 0.766 0.019 0.109 0.071 0.204 0.146 0.276l0 0c0.073 0.071 0.173 0.114 0.283 0.114s0.21-0.044 0.283-0.115l-0 0c0.074-0.072 0.127-0.167 0.146-0.273l0-0.003c0.048-0.263 0.091-0.515 0.132-0.777 0.322-2.317 0.565-4.781-0.593-7.293z"></path>
<path d="M26.644 3.343c-1.217-1.097-2.807-1.803-4.559-1.905l-0.020-0.001c-0.113-0.006-0.245-0.010-0.378-0.010-0.297 0-0.59 0.018-0.878 0.053l0.035-0.003c-0.112 0.013-0.211 0.064-0.285 0.139l-0 0c-0.073 0.074-0.118 0.176-0.118 0.289s0.045 0.215 0.118 0.289l-0-0c0.074 0.075 0.172 0.126 0.282 0.139l0.002 0c0.4 0.054 0.753 0.13 1.095 0.231l-0.052-0.013c1.359 0.394 2.511 1.146 3.385 2.147l0.007 0.008c1.031 1.18 1.659 2.735 1.659 4.436s-0.628 3.256-1.666 4.444l0.007-0.008c-0.881 1.009-2.033 1.761-3.342 2.143l-0.050 0.012c-0.291 0.088-0.644 0.164-1.006 0.214l-0.038 0.004c-0.112 0.013-0.211 0.064-0.285 0.139l-0 0c-0.073 0.074-0.118 0.176-0.118 0.289s0.045 0.215 0.118 0.289l-0-0c0.074 0.075 0.172 0.126 0.282 0.139l0.002 0c0.253 0.032 0.545 0.050 0.842 0.050 0.133 0 0.265-0.004 0.397-0.011l-0.018 0.001c1.772-0.104 3.362-0.809 4.586-1.912l-0.007 0.006c1.588-1.435 2.581-3.501 2.581-5.8s-0.993-4.365-2.574-5.794l-0.007-0.006z"></path>
<path d="M22.523 24.309c-0.251-1.686-1.217-3.107-2.575-3.964l-0.023-0.014c-2.83-1.606-5.79-1.605-8.602-1.664q-0.066 0-0.132 0c-2.837 0.075-5.847 0.062-8.655 1.886-3.001 2.156-2.559 5.812-2.445 8.444 0.041 0.625 0.090 1.238 0.138 1.861 0.008 0.115 0.058 0.216 0.134 0.292l0 0c0.076 0.075 0.18 0.121 0.294 0.121s0.219-0.046 0.294-0.121l-0 0c0.076-0.075 0.126-0.177 0.134-0.29l0-0.002c0.048-0.626 0.089-1.241 0.134-1.858 0.201-2.722 0.415-5.697 2.429-6.789 2.012-1.163 4.862-1.222 7.549-1.258h0.126c2.671 0.025 5.51 0.064 7.601 1.101 2.124 0.937 2.344 3.841 2.51 6.561 0.040 0.614 0.079 1.235 0.126 1.861 0.008 0.115 0.058 0.216 0.134 0.292l0 0c0.076 0.075 0.18 0.121 0.294 0.121s0.219-0.046 0.294-0.121l-0 0c0.076-0.075 0.126-0.177 0.134-0.29l0-0.002c0.048-0.62 0.099-1.237 0.145-1.856 0.068-0.596 0.107-1.286 0.107-1.986 0-0.82-0.053-1.627-0.157-2.418l0.010 0.093z"></path>
<path d="M11.702 0.762c-4.629 0-8.381 3.752-8.381 8.381s3.752 8.381 8.381 8.381c4.629 0 8.381-3.752 8.381-8.381v0c-0.005-4.627-3.754-8.376-8.38-8.381h-0.001zM11.702 15.238c-3.366 0-6.095-2.729-6.095-6.095s2.729-6.095 6.095-6.095c3.366 0 6.095 2.729 6.095 6.095v0c-0.004 3.365-2.731 6.091-6.095 6.095h-0z"></path>
</symbol>
<symbol id="icon-prise" viewBox="0 0 32 32">
<path d="M23.013 15.667c1.481-1.655 2.387-3.852 2.387-6.261 0-5.195-4.211-9.406-9.406-9.406s-9.406 4.211-9.406 9.406c0 0.002 0 0.004 0 0.006v-0c0 0.001 0 0.002 0 0.003 0 2.234 0.783 4.285 2.089 5.895l-0.014-0.017c-0.097 0.163-0.163 0.355-0.185 0.561l-0.001 0.006-1.412 14.118c-0.005 0.043-0.007 0.092-0.007 0.142 0 0.779 0.632 1.411 1.411 1.411 0.314 0 0.604-0.103 0.839-0.276l-0.004 0.003 6.215-4.557 6.692 5.019c0.233 0.176 0.528 0.282 0.847 0.282 0.78 0 1.412-0.632 1.412-1.412 0-0.048-0.002-0.095-0.007-0.141l0 0.006-1.412-14.588c-0.010-0.075-0.024-0.142-0.042-0.207l0.002 0.010zM16 2.824c3.639 0 6.588 2.95 6.588 6.588s-2.95 6.588-6.588 6.588c-3.639 0-6.588-2.95-6.588-6.588v0c0.004-3.637 2.951-6.584 6.588-6.588h0zM16.376 23.812c-0.233-0.176-0.528-0.282-0.847-0.282-0.314 0-0.604 0.103-0.839 0.276l0.004-0.003-4.504 3.303 0.964-9.641c1.382 0.853 3.058 1.358 4.851 1.358 1.607 0 3.119-0.406 4.439-1.12l-0.049 0.024 0.95 9.811z"></path>
</symbol>
<symbol id="icon-star" viewBox="0 0 32 32">
<path d="M16 32c-0.006 0-0.012 0-0.019 0-0.843 0-1.551-0.578-1.75-1.359l-0.003-0.012-2.367-9.176c-0.17-0.645-0.669-1.144-1.301-1.311l-0.013-0.003-9.176-2.366c-0.795-0.211-1.372-0.924-1.372-1.772s0.577-1.561 1.359-1.769l0.013-0.003 9.175-2.366c0.646-0.17 1.144-0.669 1.312-1.302l0.003-0.013 2.367-9.176c0.202-0.794 0.91-1.371 1.753-1.371 0.006 0 0.013 0 0.019 0h-0c0.005-0 0.011-0 0.017-0 0.844 0 1.552 0.578 1.751 1.36l0.003 0.012 2.366 9.176c0.171 0.646 0.669 1.144 1.302 1.312l0.013 0.003 9.175 2.366c0.795 0.211 1.372 0.924 1.372 1.772s-0.577 1.561-1.359 1.769l-0.013 0.003-9.175 2.366c-0.646 0.171-1.145 0.669-1.313 1.302l-0.003 0.013-2.365 9.175c-0.202 0.794-0.91 1.372-1.754 1.372-0.006 0-0.012-0-0.018-0h0.001zM15.114 1.601l0.886 0.229-2.366 9.174c-0.341 1.292-1.338 2.289-2.605 2.624l-0.026 0.006-9.174 2.366 9.175 2.367c1.292 0.341 2.288 1.338 2.624 2.604l0.006 0.026 2.366 9.176 2.366-9.176c0.342-1.291 1.339-2.287 2.604-2.623l0.026-0.006 9.175-2.366-9.175-2.367c-1.291-0.341-2.287-1.338-2.623-2.603l-0.006-0.026-2.367-9.176z"></path>
<path d="M26.976 9.831c-0.005 0-0.010 0-0.016 0-0.737 0-1.355-0.505-1.529-1.187l-0.002-0.011c-0.149-0.563-0.584-0.998-1.136-1.144l-0.011-0.003c-0.694-0.184-1.198-0.807-1.198-1.547s0.504-1.363 1.187-1.544l0.011-0.003c0.563-0.149 0.998-0.583 1.144-1.135l0.003-0.011c0.184-0.695 0.807-1.198 1.547-1.198s1.363 0.504 1.545 1.187l0.003 0.011c0.149 0.563 0.584 0.998 1.136 1.144l0.011 0.003c0.695 0.183 1.199 0.806 1.199 1.547s-0.504 1.363-1.188 1.544l-0.011 0.003c-0.563 0.149-0.998 0.583-1.145 1.135l-0.003 0.011c-0.175 0.693-0.794 1.198-1.53 1.198-0.006 0-0.011-0-0.017-0h0.001zM25.357 5.939c0.712 0.345 1.274 0.907 1.61 1.598l0.009 0.020c0.346-0.712 0.907-1.273 1.599-1.609l0.020-0.009c-0.712-0.345-1.274-0.907-1.61-1.599l-0.009-0.020c-0.345 0.712-0.906 1.274-1.598 1.61l-0.020 0.009z"></path>
<path d="M4.11 29.039c-0.005 0-0.010 0-0.015 0-0.737 0-1.356-0.505-1.529-1.188l-0.002-0.011c-0.149-0.563-0.584-0.998-1.136-1.144l-0.011-0.003c-0.694-0.184-1.198-0.807-1.198-1.547s0.504-1.363 1.187-1.544l0.011-0.003c0.563-0.149 0.998-0.583 1.144-1.135l0.002-0.011c0.184-0.695 0.807-1.198 1.547-1.198s1.363 0.504 1.545 1.187l0.003 0.011c0.149 0.563 0.583 0.998 1.136 1.144l0.011 0.003c0.695 0.183 1.199 0.806 1.199 1.547s-0.504 1.363-1.188 1.544l-0.011 0.003c-0.563 0.149-0.998 0.583-1.145 1.135l-0.003 0.011c-0.175 0.693-0.794 1.198-1.53 1.198-0.006 0-0.011-0-0.017-0h0.001zM2.491 25.146c0.712 0.345 1.274 0.907 1.61 1.599l0.009 0.020c0.346-0.712 0.907-1.273 1.599-1.609l0.020-0.009c-0.712-0.345-1.274-0.907-1.61-1.599l-0.009-0.020c-0.345 0.712-0.906 1.273-1.598 1.609l-0.020 0.009z"></path>
</symbol>
<symbol id="icon-sun" viewBox="0 0 32 32">
<path d="M16 23.636c-4.217 0-7.636-3.419-7.636-7.636s3.419-7.636 7.636-7.636c4.217 0 7.636 3.419 7.636 7.636v0c-0.005 4.215-3.421 7.631-7.636 7.636h-0zM16 10.545c-3.012 0-5.455 2.442-5.455 5.455s2.442 5.455 5.455 5.455c3.012 0 5.455-2.442 5.455-5.455v0c-0.003-3.011-2.443-5.451-5.454-5.455h-0z"></path>
<path d="M16.364 6.545c-0.602 0-1.091-0.488-1.091-1.091v0-4.364c0-0.603 0.488-1.091 1.091-1.091s1.091 0.488 1.091 1.091v0 4.364c0 0.603-0.488 1.091-1.091 1.091v0z"></path>
<path d="M16.364 32c-0.602 0-1.091-0.488-1.091-1.091v0-4.364c0-0.602 0.488-1.091 1.091-1.091s1.091 0.488 1.091 1.091v0 4.364c0 0.602-0.488 1.091-1.091 1.091v0z"></path>
<path d="M5.455 17.455h-4.364c-0.603 0-1.091-0.488-1.091-1.091s0.488-1.091 1.091-1.091v0h4.364c0.603 0 1.091 0.488 1.091 1.091s-0.488 1.091-1.091 1.091v0z"></path>
<path d="M23.273 9.994c-0.602-0-1.090-0.489-1.090-1.091 0-0.301 0.122-0.574 0.319-0.771l3.085-3.085c0.196-0.19 0.464-0.307 0.759-0.307 0.602 0 1.091 0.488 1.091 1.091 0 0.295-0.117 0.563-0.308 0.759l-3.085 3.085c-0.197 0.197-0.469 0.319-0.77 0.319-0.001 0-0.001 0-0.002 0h0z"></path>
<path d="M5.091 28.176c-0.602-0-1.090-0.489-1.090-1.091 0-0.301 0.122-0.574 0.319-0.771l3.085-3.085c0.196-0.19 0.464-0.307 0.759-0.307 0.603 0 1.091 0.488 1.091 1.091 0 0.295-0.117 0.563-0.308 0.759l-3.085 3.085c-0.197 0.197-0.469 0.32-0.77 0.32-0 0-0.001 0-0.001 0h0z"></path>
<path d="M26.446 28.176c-0 0-0.001 0-0.001 0-0.301 0-0.573-0.122-0.77-0.32l-3.086-3.085c-0.19-0.196-0.307-0.464-0.307-0.759 0-0.602 0.488-1.091 1.091-1.091 0.295 0 0.563 0.117 0.759 0.308l3.085 3.085c0.197 0.197 0.319 0.47 0.319 0.771 0 0.602-0.488 1.091-1.091 1.091v0z"></path>
<path d="M8.992 9.994c-0 0-0.001 0-0.001 0-0.301 0-0.573-0.122-0.77-0.32l-3.086-3.085c-0.187-0.196-0.303-0.461-0.303-0.754 0-0.603 0.488-1.091 1.091-1.091 0.293 0 0.559 0.115 0.755 0.303l-0-0 3.086 3.085c0.197 0.197 0.319 0.47 0.319 0.771 0 0.602-0.488 1.091-1.091 1.091v0z"></path>
<path d="M30.909 17.455h-4.364c-0.602 0-1.091-0.488-1.091-1.091s0.488-1.091 1.091-1.091v0h4.364c0.602 0 1.091 0.488 1.091 1.091s-0.488 1.091-1.091 1.091v0z"></path>
</symbol>
<symbol id="icon-tel" viewBox="0 0 32 32">
<path d="M31.112 23.098c-1.796-3.407-5.91-5.5-8.070-5.5-1.954 0.073-3.685 0.97-4.866 2.351l-0.008 0.009c-1.875-2.442-3.936-4.583-6.211-6.477l-0.065-0.052c1.445-1.172 2.485-2.792 2.909-4.648l0.011-0.056c0.459-1.874-0.627-5.11-3.183-7.069-1.696-1.303-5.394-3.016-11.096 0.12l-0.535 0.293v0.611c0 9.877 6.146 28.712 29.406 29.307l0.56 0.014 0.317-0.463c2.465-3.596 1.811-6.574 0.829-8.439zM28.883 29.904c-20.724-0.827-26.561-17.366-26.81-26.607 4.129-2.076 6.785-1.168 8.303-0.004 1.901 1.457 2.699 3.859 2.434 4.941-0.347 1.531-1.198 2.824-2.366 3.727l-0.015 0.011c-0.297 0.273-0.6 0.551-0.903 0.862l-0.906 0.925 1.104 0.676c3.334 2.043 7.476 7.649 7.518 7.705l0.719 0.978 1.086-1.11c1.277-1.311 2.285-2.347 3.997-2.347 1.384 0 4.806 1.67 6.244 4.399 0.398 0.752 0.632 1.645 0.632 2.591 0 1.219-0.388 2.348-1.046 3.27l0.012-0.017z"></path>
</symbol>
<symbol id="icon-wind" viewBox="0 0 32 32">
<path d="M15.644 11.78h-14.578c-0.589 0-1.067-0.478-1.067-1.067s0.478-1.067 1.067-1.067v0h14.578c0.073 0.007 0.158 0.010 0.244 0.010 0.776 0 1.479-0.308 1.995-0.809l-0.001 0.001c0.267-0.45 0.425-0.992 0.425-1.571 0-0.341-0.055-0.67-0.156-0.977l0.006 0.022c-0.202-0.779-0.899-1.344-1.728-1.344-0.042 0-0.083 0.001-0.124 0.004l0.006-0c-1.194-0.056-2.312 0.525-2.501 1.091-0.15 0.419-0.544 0.714-1.007 0.714-0.589 0-1.067-0.478-1.067-1.067 0-0.115 0.018-0.225 0.052-0.329l-0.002 0.008c0.593-1.779 2.829-2.638 4.634-2.547 0.009-0 0.020-0 0.031-0 1.835 0 3.374 1.272 3.782 2.982l0.005 0.026c0.497 2.238-0.103 3.586-0.694 4.324-0.88 0.988-2.157 1.608-3.578 1.608-0.115 0-0.228-0.004-0.341-0.012l0.015 0.001z"></path>
<path d="M19.64 29.428c-1.746 0-3.676-0.761-4.281-2.333-0.045-0.113-0.071-0.245-0.071-0.382 0-0.589 0.478-1.067 1.067-1.067 0.452 0 0.838 0.281 0.993 0.677l0.003 0.007c0.202 0.526 1.304 1.043 2.562 0.955 0.556-0.041 1.88-0.271 2.156-1.515 0.164-0.739 0.261-1.743-0.208-2.328-0.432-0.408-1.015-0.659-1.658-0.659-0.103 0-0.205 0.006-0.304 0.019l0.012-0.001h-18.133c-0.589 0-1.067-0.478-1.067-1.067s0.478-1.067 1.067-1.067v0h18.133c0.107-0.009 0.232-0.015 0.358-0.015 1.291 0 2.452 0.56 3.253 1.45l0.004 0.004c0.551 0.688 1.108 1.962 0.626 4.126-0.401 1.804-1.965 3.022-4.081 3.18-0.142 0.010-0.286 0.016-0.431 0.016z"></path>
<path d="M25.792 17.113h-24.014c-0.589 0-1.067-0.478-1.067-1.067s0.478-1.067 1.067-1.067v0h24.014c1.758 0 3.1-0.481 3.681-1.319 0.206-0.346 0.328-0.764 0.328-1.21 0-0.365-0.082-0.712-0.228-1.022l0.006 0.015c-0.312-1.037-1.258-1.779-2.377-1.779-0.12 0-0.238 0.009-0.354 0.025l0.013-0.002c-1.040 0.101-1.907 0.717-1.988 1.2-0.082 0.515-0.523 0.903-1.054 0.903-0.589 0-1.067-0.478-1.067-1.067 0-0.066 0.006-0.131 0.018-0.194l-0.001 0.007c0.255-1.529 1.889-2.779 3.885-2.973 0.16-0.019 0.344-0.031 0.532-0.031 2.031 0 3.756 1.308 4.38 3.127l0.010 0.033c0.232 0.52 0.367 1.127 0.367 1.765 0 0.898-0.268 1.734-0.728 2.432l0.010-0.017c-1 1.443-2.93 2.238-5.434 2.238z"></path>
</symbol>
<symbol id="icon-youtube" viewBox="0 0 32 32">
<path d="M25.043 5.565h-18.087c-3.84 0.005-6.952 3.116-6.957 6.956v6.957c0.005 3.84 3.116 6.952 6.956 6.957h18.087c3.84-0.005 6.952-3.116 6.957-6.956v-6.957c-0.005-3.84-3.116-6.952-6.956-6.957h-0zM30.609 19.478c-0.003 3.072-2.493 5.562-5.565 5.565h-18.087c-3.072-0.003-5.562-2.493-5.565-5.565v-6.957c0.003-3.072 2.493-5.562 5.565-5.565h18.087c3.072 0.003 5.562 2.493 5.565 5.565v0z"></path>
<path d="M21.914 15.398l-8.349-4.821c-0.1-0.059-0.22-0.093-0.348-0.093-0.384 0-0.695 0.311-0.696 0.695v9.642c0 0.384 0.312 0.695 0.696 0.695 0.128 0 0.248-0.035 0.351-0.095l-0.003 0.002 8.349-4.821c0.209-0.122 0.348-0.346 0.348-0.602s-0.138-0.48-0.345-0.6l-0.003-0.002zM13.913 19.615v-7.231l6.262 3.615z"></path>
</symbol>
<symbol id="icon-address" viewBox="0 0 32 32">
<path d="M15.869 0.248c-7.174 0.009-12.987 5.822-12.995 12.995v0.001c0.18 4.145 1.574 7.933 3.832 11.055l-0.041-0.060c2.18 3.282 5.156 5.877 8.657 7.544l0.129 0.055 0.418 0.181 0.418-0.181c3.63-1.723 6.605-4.317 8.737-7.521l0.049-0.078c2.217-3.062 3.61-6.85 3.79-10.952l0.001-0.043c-0.009-7.174-5.822-12.987-12.995-12.995h-0.001zM23.339 23.053c-1.88 2.829-4.4 5.092-7.361 6.618l-0.109 0.051c-3.071-1.577-5.591-3.84-7.426-6.598l-0.045-0.072c-1.99-2.73-3.247-6.107-3.423-9.767l-0.002-0.042c0-6.017 4.878-10.895 10.895-10.895s10.895 4.878 10.895 10.895v0c-0.178 3.702-1.435 7.080-3.461 9.861l0.036-0.052z"></path>
<path d="M15.869 19.019c-3.19 0-5.776-2.586-5.776-5.776s2.586-5.776 5.776-5.776c3.19 0 5.776 2.586 5.776 5.776v0c-0.004 3.188-2.587 5.772-5.775 5.776h-0zM15.869 9.568c-2.030 0-3.675 1.646-3.675 3.675s1.646 3.675 3.675 3.675c2.030 0 3.675-1.646 3.675-3.675v0c-0.003-2.029-1.647-3.673-3.675-3.675h-0z"></path>
</symbol>
<symbol id="icon-canva" viewBox="0 0 32 32">
<path d="M18.427 32l-1.048-0.037c-5.306-0.186-9.721-1.798-12.766-4.664-3.018-2.84-4.613-6.75-4.613-11.308 0-8.832 7.16-15.991 15.991-15.991s15.991 7.16 15.991 15.991v0c0.208 3.133-0.436 5.109-2.028 6.218-0.689 0.457-1.502 0.79-2.377 0.945l-0.038 0.006c-0.688 0.137-1.548 0.257-2.421 0.332l-0.093 0.006-0.27 0.028c-1.638 0.167-3.676 0.374-4.969 1.547-1.244 1.127-1.721 3.052-1.458 5.883zM15.991 1.845c-7.809 0.009-14.137 6.337-14.146 14.145v0.001c0 4.036 1.394 7.481 4.032 9.964 2.522 2.373 6.153 3.785 10.547 4.109-0.098-2.891 0.601-4.977 2.124-6.358 1.742-1.58 4.215-1.832 6.021-2.016l0.271-0.028c0.832-0.085 1.618-0.164 2.326-0.31 0.654-0.111 1.238-0.341 1.754-0.669l-0.019 0.011c0.365-0.254 1.477-1.029 1.241-4.581l-0.004-0.092c0-0.002 0-0.005 0-0.008 0-7.817-6.331-14.156-14.145-14.169h-0.001z"></path>
<path d="M9.841 16.914c0 1.189-0.964 2.153-2.153 2.153s-2.153-0.964-2.153-2.153c0-1.189 0.964-2.153 2.153-2.153s2.153 0.964 2.153 2.153z"></path>
<path d="M12.916 9.534c0 1.189-0.964 2.153-2.153 2.153s-2.153-0.964-2.153-2.153c0-1.189 0.964-2.153 2.153-2.153s2.153 0.964 2.153 2.153z"></path>
<path d="M20.297 8.303c0 1.189-0.964 2.153-2.153 2.153s-2.153-0.964-2.153-2.153c0-1.189 0.964-2.153 2.153-2.153s2.153 0.964 2.153 2.153z"></path>
<path d="M25.832 13.839c0 1.189-0.964 2.153-2.153 2.153s-2.153-0.964-2.153-2.153c0-1.189 0.964-2.153 2.153-2.153s2.153 0.964 2.153 2.153z"></path>
</symbol>
<symbol id="icon-clocks" viewBox="0 0 32 32">
<path d="M16 32c-8.837 0-16-7.163-16-16s7.163-16 16-16c8.837 0 16 7.163 16 16v0c-0.010 8.832-7.168 15.99-15.999 16h-0.001zM16 2.024c-7.719 0-13.976 6.257-13.976 13.976s6.257 13.976 13.976 13.976c7.719 0 13.976-6.257 13.976-13.976v0c-0.009-7.715-6.261-13.967-13.975-13.976h-0.001z"></path>
<path d="M22.057 18.594l-5.741-3.19v-8.448c0-0.559-0.453-1.012-1.012-1.012s-1.012 0.453-1.012 1.012v0 9.639l6.781 3.767c0.139 0.077 0.305 0.122 0.482 0.122 0.559 0 1.012-0.453 1.012-1.012 0-0.374-0.203-0.701-0.506-0.876l-0.005-0.003z"></path>
</symbol>
<symbol id="icon-account" viewBox="0 0 30 32">
<path d="M15.158 16.842c-4.651 0-8.421-3.77-8.421-8.421s3.77-8.421 8.421-8.421c4.651 0 8.421 3.77 8.421 8.421v0c-0.006 4.649-3.773 8.415-8.421 8.421h-0.001zM15.158 1.684c-3.721 0-6.737 3.016-6.737 6.737s3.016 6.737 6.737 6.737c3.721 0 6.737-3.016 6.737-6.737v0c-0.004-3.719-3.018-6.733-6.736-6.737h-0z"></path>
<path d="M30.316 32c-0.003-1.873-0.428-3.646-1.185-5.23l0.032 0.073c-0.821-1.717-1.927-3.17-3.271-4.359l-0.014-0.012c-1.388-1.229-3.021-2.219-4.811-2.886l-0.106-0.035c-1.725-0.65-3.719-1.026-5.801-1.026s-4.076 0.376-5.917 1.064l0.117-0.038c-1.897 0.702-3.53 1.692-4.934 2.935l0.016-0.014c-1.359 1.201-2.465 2.654-3.25 4.29l-0.035 0.081c-0.726 1.51-1.151 3.283-1.154 5.155v0.001h1.756c0.003-1.656 0.379-3.223 1.048-4.624l-0.028 0.065c0.726-1.518 1.703-2.803 2.892-3.854l0.013-0.011c1.227-1.086 2.671-1.962 4.254-2.552l0.094-0.031c1.525-0.574 3.288-0.907 5.128-0.907s3.603 0.332 5.232 0.941l-0.103-0.034c1.677 0.621 3.121 1.496 4.362 2.595l-0.014-0.013c1.202 1.062 2.18 2.347 2.874 3.793l0.031 0.072c0.642 1.335 1.018 2.903 1.021 4.558v0.001z"></path>
</symbol>
<symbol id="icon-buy" viewBox="0 0 25 32">
<path d="M21.269 32h-17.281c-2.201-0.003-3.985-1.786-3.988-3.988v-18.611h25.257v18.61c-0.003 2.201-1.786 3.985-3.988 3.988h-0zM1.329 10.731v17.281c0.002 1.468 1.191 2.657 2.658 2.659h17.281c1.468-0.002 2.657-1.191 2.659-2.658v-17.281z"></path>
<path d="M18.77 4.101c-1.025-2.43-3.388-4.105-6.141-4.105-3.671 0-6.647 2.976-6.647 6.647 0 0.001 0 0.001 0 0.002v-0 1.329h13.293v-1.329c0-0.003 0-0.006 0-0.009 0-0.915-0.186-1.786-0.521-2.578l0.016 0.043zM12.629 6.646h-5.317c0-2.937 2.381-5.317 5.317-5.317s5.317 2.381 5.317 5.317v0z"></path>
</symbol>
<symbol id="icon-search" viewBox="0 0 32 32">
<path d="M30.567 30.526c-1.171-1.538-2.365-2.902-3.644-4.181l0 0c-0.273-0.264-0.58-0.495-0.912-0.687l-0.022-0.012c2.646-2.696 4.28-6.394 4.28-10.474 0-8.26-6.696-14.956-14.956-14.956s-14.956 6.696-14.956 14.956c0 8.26 6.696 14.956 14.956 14.956 3.809 0 7.285-1.424 9.925-3.768l-0.015 0.013c0.206 0.365 0.443 0.679 0.714 0.96l-0.001-0.001c1.279 1.278 2.643 2.472 4.083 3.571l0.098 0.072q0.159 0.121 0.319 0.24l0.37-0.37q-0.119-0.16-0.239-0.319zM15.456 28.73c-7.331 0-13.274-5.943-13.274-13.274s5.943-13.274 13.274-13.274c7.331 0 13.274 5.943 13.274 13.274v0c-0.009 7.328-5.946 13.265-13.273 13.274h-0.001z"></path>
</symbol>
<symbol id="icon-menu-1" viewBox="0 0 46 32">
<path d="M45.714 29.726c0 1.257-1.019 2.274-2.274 2.274h-18.309c-1.256 0-2.274-1.018-2.274-2.274s1.018-2.274 2.274-2.274h18.309c1.257 0 2.274 1.017 2.274 2.274zM45.714 16c0 1.257-1.019 2.274-2.274 2.274h-41.166c-1.256 0-2.274-1.018-2.274-2.274s1.018-2.274 2.274-2.274h41.166c1.257 0 2.274 1.019 2.274 2.274zM43.44 4.549c1.256 0 2.274-1.018 2.274-2.274s-1.018-2.274-2.274-2.274v0h-27.451c-1.256 0-2.274 1.018-2.274 2.274s1.018 2.274 2.274 2.274v0z"></path>
</symbol>
</defs>
</svg>
