<svg aria-hidden="true" style="position: absolute; width: 0; height: 0; overflow: hidden;" version="1.1" xmlns="http://www.w3.org/2000/svg" xmlns:xlink="http://www.w3.org/1999/xlink">
<defs>
<symbol id="icon-account" viewBox="0 0 30 32">
<path d="M15.158 16.842c-4.651 0-8.421-3.77-8.421-8.421s3.77-8.421 8.421-8.421c4.651 0 8.421 3.77 8.421 8.421v0c-0.006 4.649-3.773 8.415-8.421 8.421h-0.001zM15.158 1.684c-3.721 0-6.737 3.016-6.737 6.737s3.016 6.737 6.737 6.737c3.721 0 6.737-3.016 6.737-6.737v0c-0.004-3.719-3.018-6.733-6.736-6.737h-0z"></path>
<path d="M30.316 32c-0.003-1.873-0.428-3.646-1.185-5.23l0.032 0.073c-0.821-1.717-1.927-3.17-3.271-4.359l-0.014-0.012c-1.388-1.229-3.021-2.219-4.811-2.886l-0.106-0.035c-1.725-0.65-3.719-1.026-5.801-1.026s-4.076 0.376-5.917 1.064l0.117-0.038c-1.897 0.702-3.53 1.692-4.934 2.935l0.016-0.014c-1.359 1.201-2.465 2.654-3.25 4.29l-0.035 0.081c-0.726 1.51-1.151 3.283-1.154 5.155v0.001h1.756c0.003-1.656 0.379-3.223 1.048-4.624l-0.028 0.065c0.726-1.518 1.703-2.803 2.892-3.854l0.013-0.011c1.227-1.086 2.671-1.962 4.254-2.552l0.094-0.031c1.525-0.574 3.288-0.907 5.128-0.907s3.603 0.332 5.232 0.941l-0.103-0.034c1.677 0.621 3.121 1.496 4.362 2.595l-0.014-0.013c1.202 1.062 2.18 2.347 2.874 3.793l0.031 0.072c0.642 1.335 1.018 2.903 1.021 4.558v0.001z"></path>
</symbol>
<symbol id="icon-buy" viewBox="0 0 25 32">
<path d="M21.269 32h-17.281c-2.201-0.003-3.985-1.786-3.988-3.988v-18.611h25.257v18.61c-0.003 2.201-1.786 3.985-3.988 3.988h-0zM1.329 10.731v17.281c0.002 1.468 1.191 2.657 2.658 2.659h17.281c1.468-0.002 2.657-1.191 2.659-2.658v-17.281z"></path>
<path d="M18.77 4.101c-1.025-2.43-3.388-4.105-6.141-4.105-3.671 0-6.647 2.976-6.647 6.647 0 0.001 0 0.001 0 0.002v-0 1.329h13.293v-1.329c0-0.003 0-0.006 0-0.009 0-0.915-0.186-1.786-0.521-2.578l0.016 0.043zM12.629 6.646h-5.317c0-2.937 2.381-5.317 5.317-5.317s5.317 2.381 5.317 5.317v0z"></path>
</symbol>
<symbol id="icon-search" viewBox="0 0 32 32">
<path d="M30.567 30.526c-1.171-1.538-2.365-2.902-3.644-4.181l0 0c-0.273-0.264-0.58-0.495-0.912-0.687l-0.022-0.012c2.646-2.696 4.28-6.394 4.28-10.474 0-8.26-6.696-14.956-14.956-14.956s-14.956 6.696-14.956 14.956c0 8.26 6.696 14.956 14.956 14.956 3.809 0 7.285-1.424 9.925-3.768l-0.015 0.013c0.206 0.365 0.443 0.679 0.714 0.96l-0.001-0.001c1.279 1.278 2.643 2.472 4.083 3.571l0.098 0.072q0.159 0.121 0.319 0.24l0.37-0.37q-0.119-0.16-0.239-0.319zM15.456 28.73c-7.331 0-13.274-5.943-13.274-13.274s5.943-13.274 13.274-13.274c7.331 0 13.274 5.943 13.274 13.274v0c-0.009 7.328-5.946 13.265-13.273 13.274h-0.001z"></path>
</symbol>
<symbol id="icon-menu-1" viewBox="0 0 46 32">
<path d="M45.714 29.726c0 1.257-1.019 2.274-2.274 2.274h-18.309c-1.256 0-2.274-1.018-2.274-2.274s1.018-2.274 2.274-2.274h18.309c1.257 0 2.274 1.017 2.274 2.274zM45.714 16c0 1.257-1.019 2.274-2.274 2.274h-41.166c-1.256 0-2.274-1.018-2.274-2.274s1.018-2.274 2.274-2.274h41.166c1.257 0 2.274 1.019 2.274 2.274zM43.44 4.549c1.256 0 2.274-1.018 2.274-2.274s-1.018-2.274-2.274-2.274v0h-27.451c-1.256 0-2.274 1.018-2.274 2.274s1.018 2.274 2.274 2.274v0z"></path>
</symbol>
</defs>
</svg>
