<svg width="255" height="80" viewBox="0 0 255 80" fill="none" xmlns="http://www.w3.org/2000/svg">
<g clip-path="url(#paint0_diamond_2001_746_clip_path)" data-figma-skip-parse="true"><g transform="matrix(0.1275 0 0 0.04 127.5 40)"><rect x="0" y="0" width="1007.84" height="1025" fill="url(#paint0_diamond_2001_746)" opacity="1" shape-rendering="crispEdges"/><rect x="0" y="0" width="1007.84" height="1025" transform="scale(1 -1)" fill="url(#paint0_diamond_2001_746)" opacity="1" shape-rendering="crispEdges"/><rect x="0" y="0" width="1007.84" height="1025" transform="scale(-1 1)" fill="url(#paint0_diamond_2001_746)" opacity="1" shape-rendering="crispEdges"/><rect x="0" y="0" width="1007.84" height="1025" transform="scale(-1)" fill="url(#paint0_diamond_2001_746)" opacity="1" shape-rendering="crispEdges"/></g></g><path d="M48.384 12.696V14.616C43.008 15 42.496 15.384 42.496 20.824V46.872C42.496 52.376 43.008 52.696 48.384 53.144V55H30.464V53.144C36.032 52.696 36.608 52.376 36.608 46.872V34.008H14.272V46.872C14.272 52.312 14.848 52.696 20.224 53.144V55H2.688V53.144C7.872 52.696 8.448 52.376 8.448 46.872V20.824C8.448 15.384 7.872 15 2.496 14.616V12.696H19.904V14.616C14.848 15 14.272 15.384 14.272 20.824V31.256H36.608V20.824C36.608 15.384 36.032 15 30.912 14.616V12.696H48.384ZM77.9205 52.376L72.1605 55.768C71.1365 55.768 69.7285 55.192 69.0245 54.488C68.1285 53.656 67.6805 52.696 67.4245 51.672C64.8645 53.4 61.7285 55.768 59.7445 55.768C55.0085 55.768 51.8085 51.864 51.8085 47.768C51.8085 44.632 53.4725 42.584 57.1205 41.368C61.1525 40.088 65.8245 38.296 67.2965 37.144V35.992C67.2965 31.32 65.1205 28.76 61.8565 28.76C60.7045 28.76 59.6805 29.208 58.9765 29.912C58.2085 30.808 57.6325 32.28 57.0565 34.264C56.7365 35.352 56.0965 35.864 55.0085 35.864C53.7925 35.864 52.1285 34.52 52.1285 32.984C52.1285 32.088 52.8965 31.32 54.1765 30.36C56.0965 29.016 60.4485 26.52 64.0965 25.752C66.1445 25.752 68.0645 26.328 69.6005 27.544C71.9045 29.464 72.5445 32.152 72.5445 35.608V47.448C72.5445 50.456 73.7605 51.352 74.9125 51.352C75.6805 51.352 76.5765 51.032 77.2165 50.712L77.9205 52.376ZM67.2965 49.56V39.384C65.8885 40.152 63.0085 41.368 61.6645 42.008C59.1045 43.16 57.6965 44.44 57.6965 46.808C57.6965 50.2 60.3205 51.736 62.2405 51.736C63.8405 51.736 66.0805 50.712 67.2965 49.56ZM112.489 51.608V53.336C111.081 53.592 105.961 54.424 101.993 55.768V51.544L98.0885 53.912C95.5285 55.384 93.8005 55.768 93.0325 55.768C87.7205 55.768 80.8085 51.032 80.8085 41.88C80.8085 32.856 88.7445 25.752 97.7045 25.752C98.6645 25.752 100.457 25.944 101.993 26.456V17.368C101.993 13.144 101.609 12.952 97.0005 12.568V10.968C100.521 10.52 105.001 9.56 107.497 8.728V47.384C107.497 50.84 107.945 51.224 110.441 51.416L112.489 51.608ZM101.993 49.496V31.64C100.457 29.336 97.7685 28.312 95.4005 28.312C92.4565 28.312 87.0165 30.68 87.0165 40.152C87.0165 47.896 91.8165 51.608 95.9765 51.608C98.2165 51.608 100.457 50.584 101.993 49.496ZM141.921 52.376L136.161 55.768C135.137 55.768 133.729 55.192 133.025 54.488C132.128 53.656 131.681 52.696 131.425 51.672C128.865 53.4 125.729 55.768 123.745 55.768C119.009 55.768 115.809 51.864 115.809 47.768C115.809 44.632 117.473 42.584 121.121 41.368C125.153 40.088 129.825 38.296 131.297 37.144V35.992C131.297 31.32 129.121 28.76 125.857 28.76C124.705 28.76 123.681 29.208 122.977 29.912C122.209 30.808 121.633 32.28 121.057 34.264C120.737 35.352 120.097 35.864 119.009 35.864C117.793 35.864 116.129 34.52 116.129 32.984C116.129 32.088 116.897 31.32 118.177 30.36C120.097 29.016 124.449 26.52 128.097 25.752C130.145 25.752 132.065 26.328 133.601 27.544C135.905 29.464 136.545 32.152 136.545 35.608V47.448C136.545 50.456 137.761 51.352 138.913 51.352C139.681 51.352 140.577 51.032 141.217 50.712L141.921 52.376ZM131.297 49.56V39.384C129.889 40.152 127.009 41.368 125.665 42.008C123.105 43.16 121.697 44.44 121.697 46.808C121.697 50.2 124.321 51.736 126.241 51.736C127.841 51.736 130.081 50.712 131.297 49.56ZM163.181 33.88L161.453 34.328C160.173 30.488 157.933 27.928 154.733 27.928C152.237 27.928 150.573 29.72 150.573 32.28C150.573 35.032 153.133 36.632 156.013 37.784C161.005 39.768 164.333 42.136 164.333 46.744C164.333 52.696 158.765 55.768 153.517 55.768C150.125 55.768 147.053 54.552 145.901 53.656C145.453 52.696 144.877 48.152 144.813 45.72L146.605 45.464C147.757 49.816 150.701 53.592 154.669 53.592C156.973 53.592 159.213 51.8 159.213 49.176C159.213 46.36 157.421 44.888 154.093 43.288C150.189 41.56 145.837 39.32 145.837 34.264C145.837 29.656 149.741 25.752 155.821 25.752C158.637 25.752 160.365 26.328 161.773 26.968C162.349 28.376 163.053 32.344 163.181 33.88ZM187.056 33.88L185.328 34.328C184.048 30.488 181.808 27.928 178.608 27.928C176.112 27.928 174.448 29.72 174.448 32.28C174.448 35.032 177.008 36.632 179.888 37.784C184.88 39.768 188.208 42.136 188.208 46.744C188.208 52.696 182.64 55.768 177.392 55.768C174 55.768 170.928 54.552 169.776 53.656C169.328 52.696 168.752 48.152 168.688 45.72L170.48 45.464C171.632 49.816 174.576 53.592 178.544 53.592C180.848 53.592 183.088 51.8 183.088 49.176C183.088 46.36 181.296 44.888 177.968 43.288C174.064 41.56 169.712 39.32 169.712 34.264C169.712 29.656 173.616 25.752 179.696 25.752C182.512 25.752 184.24 26.328 185.648 26.968C186.224 28.376 186.928 32.344 187.056 33.88ZM219.108 52.376L213.348 55.768C212.324 55.768 210.916 55.192 210.212 54.488C209.316 53.656 208.868 52.696 208.612 51.672C206.052 53.4 202.916 55.768 200.932 55.768C196.196 55.768 192.996 51.864 192.996 47.768C192.996 44.632 194.66 42.584 198.308 41.368C202.34 40.088 207.012 38.296 208.484 37.144V35.992C208.484 31.32 206.308 28.76 203.044 28.76C201.892 28.76 200.868 29.208 200.164 29.912C199.396 30.808 198.82 32.28 198.244 34.264C197.924 35.352 197.284 35.864 196.196 35.864C194.98 35.864 193.316 34.52 193.316 32.984C193.316 32.088 194.084 31.32 195.364 30.36C197.284 29.016 201.636 26.52 205.284 25.752C207.332 25.752 209.252 26.328 210.788 27.544C213.092 29.464 213.732 32.152 213.732 35.608V47.448C213.732 50.456 214.948 51.352 216.1 51.352C216.868 51.352 217.764 51.032 218.404 50.712L219.108 52.376ZM208.484 49.56V39.384C207.076 40.152 204.196 41.368 202.852 42.008C200.292 43.16 198.884 44.44 198.884 46.808C198.884 50.2 201.508 51.736 203.428 51.736C205.028 51.736 207.268 50.712 208.484 49.56ZM253.669 55H239.653V53.272C243.365 52.952 243.941 52.44 243.941 48.216V37.528C243.941 32.216 241.765 29.592 237.541 29.592C235.237 29.592 232.741 30.744 230.949 32.856V48.216C230.949 52.376 231.269 52.952 235.109 53.272V55H220.965V53.272C224.869 52.952 225.445 52.504 225.445 48.216V17.24C225.445 13.144 225.253 12.888 221.029 12.504V10.968C224.165 10.52 228.26 9.56 230.949 8.728V30.488C233.253 28.184 236.773 25.752 240.293 25.752C245.605 25.752 249.381 29.08 249.381 37.016V48.216C249.381 52.504 249.829 52.952 253.669 53.272V55Z" data-figma-gradient-fill="{&#34;type&#34;:&#34;GRADIENT_DIAMOND&#34;,&#34;stops&#34;:[{&#34;color&#34;:{&#34;r&#34;:0.85490196943283081,&#34;g&#34;:0.54509806632995605,&#34;b&#34;:0.50196081399917603,&#34;a&#34;:1.0},&#34;position&#34;:0.0},{&#34;color&#34;:{&#34;r&#34;:0.40000000596046448,&#34;g&#34;:0.40000000596046448,&#34;b&#34;:0.40000000596046448,&#34;a&#34;:1.0},&#34;position&#34;:1.0}],&#34;stopsVar&#34;:[{&#34;color&#34;:{&#34;r&#34;:0.85490196943283081,&#34;g&#34;:0.54509806632995605,&#34;b&#34;:0.50196081399917603,&#34;a&#34;:1.0},&#34;position&#34;:0.0},{&#34;color&#34;:{&#34;r&#34;:0.40000000596046448,&#34;g&#34;:0.40000000596046448,&#34;b&#34;:0.40000000596046448,&#34;a&#34;:1.0},&#34;position&#34;:1.0}],&#34;transform&#34;:{&#34;m00&#34;:255.0,&#34;m01&#34;:0.0,&#34;m02&#34;:0.0,&#34;m10&#34;:0.0,&#34;m11&#34;:80.0,&#34;m12&#34;:0.0},&#34;opacity&#34;:1.0,&#34;blendMode&#34;:&#34;NORMAL&#34;,&#34;visible&#34;:true}"/>
<path opacity="0.6" d="M162.096 72.24C161.122 72.24 160.269 72.0067 159.536 71.54C158.802 71.0733 158.242 70.4333 157.856 69.62C157.469 68.7933 157.276 67.86 157.276 66.82C157.276 65.7667 157.469 64.8267 157.856 64C158.242 63.16 158.802 62.5067 159.536 62.04C160.269 61.56 161.129 61.32 162.116 61.32C162.809 61.32 163.416 61.3933 163.936 61.54C164.456 61.6867 164.949 61.9533 165.416 62.34V64.04H165.336C164.856 63.64 164.356 63.3533 163.836 63.18C163.329 63.0067 162.749 62.92 162.096 62.92C161.149 62.92 160.416 63.2867 159.896 64.02C159.389 64.7533 159.136 65.6933 159.136 66.84C159.136 67.9467 159.389 68.86 159.896 69.58C160.416 70.2867 161.142 70.64 162.076 70.64C162.769 70.64 163.389 70.5333 163.936 70.32C164.482 70.0933 165.022 69.74 165.556 69.26H165.636V70.96C165.142 71.4267 164.609 71.76 164.036 71.96C163.476 72.1467 162.829 72.24 162.096 72.24ZM173.296 72.24C171.776 72.24 170.59 71.7467 169.736 70.76C168.883 69.76 168.456 68.4333 168.456 66.78C168.456 65.1267 168.883 63.8067 169.736 62.82C170.59 61.82 171.776 61.32 173.296 61.32C174.816 61.32 176.003 61.82 176.856 62.82C177.71 63.8067 178.136 65.1267 178.136 66.78C178.136 68.4333 177.71 69.76 176.856 70.76C176.003 71.7467 174.816 72.24 173.296 72.24ZM173.296 70.72C174.27 70.72 175.003 70.36 175.496 69.64C175.99 68.92 176.236 67.9667 176.236 66.78C176.236 65.5933 175.99 64.64 175.496 63.92C175.003 63.2 174.27 62.84 173.296 62.84C172.323 62.84 171.59 63.2 171.096 63.92C170.616 64.64 170.376 65.5933 170.376 66.78C170.376 67.9667 170.616 68.92 171.096 69.64C171.59 70.36 172.323 70.72 173.296 70.72ZM184.489 72.24C183.849 72.24 183.216 72.1467 182.589 71.96C181.976 71.76 181.396 71.48 180.849 71.12V69.28C182.063 70.2133 183.263 70.68 184.449 70.68C185.143 70.68 185.703 70.54 186.129 70.26C186.556 69.9667 186.769 69.58 186.769 69.1C186.769 68.7667 186.663 68.4933 186.449 68.28C186.249 68.0667 185.996 67.9 185.689 67.78C185.383 67.66 184.943 67.5133 184.369 67.34C183.663 67.14 183.076 66.9467 182.609 66.76C182.156 66.56 181.769 66.2733 181.449 65.9C181.129 65.5133 180.969 65.0133 180.969 64.4C180.969 63.4667 181.323 62.72 182.029 62.16C182.736 61.6 183.663 61.32 184.809 61.32C185.956 61.32 186.996 61.62 187.929 62.22V64C187.409 63.6 186.903 63.3133 186.409 63.14C185.929 62.9667 185.423 62.88 184.889 62.88C184.223 62.88 183.696 63 183.309 63.24C182.923 63.48 182.729 63.8133 182.729 64.24C182.729 64.5467 182.829 64.8 183.029 65C183.243 65.2 183.503 65.36 183.809 65.48C184.116 65.6 184.556 65.7467 185.129 65.92C185.849 66.1333 186.436 66.34 186.889 66.54C187.343 66.7267 187.729 67.02 188.049 67.42C188.369 67.8067 188.529 68.3133 188.529 68.94C188.529 69.58 188.356 70.1533 188.009 70.66C187.663 71.1533 187.183 71.54 186.569 71.82C185.956 72.1 185.263 72.24 184.489 72.24ZM203.269 61.32C204.256 61.32 205.003 61.6267 205.509 62.24C206.016 62.84 206.269 63.68 206.269 64.76V72H204.509V65C204.509 64.3333 204.369 63.82 204.089 63.46C203.809 63.0867 203.383 62.9 202.809 62.9C202.223 62.9 201.729 63.0067 201.329 63.22C200.929 63.4333 200.469 63.78 199.949 64.26C199.963 64.3667 199.969 64.5333 199.969 64.76V72H198.209V65C198.209 64.3333 198.069 63.82 197.789 63.46C197.509 63.0867 197.083 62.9 196.509 62.9C195.923 62.9 195.429 63.0067 195.029 63.22C194.629 63.42 194.176 63.76 193.669 64.24V72H191.909V63.88L191.469 61.56H193.229L193.509 63C194.109 62.4 194.649 61.9733 195.129 61.72C195.623 61.4533 196.236 61.32 196.969 61.32C197.663 61.32 198.236 61.4733 198.689 61.78C199.156 62.0867 199.496 62.5267 199.709 63.1C200.349 62.46 200.916 62.0067 201.409 61.74C201.903 61.46 202.523 61.32 203.269 61.32ZM219.138 67.36H211.738C211.845 68.3867 212.185 69.2067 212.758 69.82C213.345 70.42 214.138 70.72 215.138 70.72C215.738 70.72 216.318 70.6 216.878 70.36C217.451 70.1067 218.031 69.74 218.618 69.26H218.698V71.02C218.111 71.4467 217.531 71.76 216.958 71.96C216.385 72.1467 215.771 72.24 215.118 72.24C214.051 72.24 213.125 72.0067 212.338 71.54C211.551 71.0733 210.945 70.4267 210.518 69.6C210.105 68.76 209.898 67.8 209.898 66.72C209.898 65.6933 210.085 64.7733 210.458 63.96C210.845 63.1333 211.391 62.4867 212.098 62.02C212.805 61.5533 213.631 61.32 214.578 61.32C215.538 61.32 216.358 61.56 217.038 62.04C217.731 62.5067 218.251 63.1533 218.598 63.98C218.958 64.8067 219.138 65.74 219.138 66.78V67.36ZM214.598 62.78C213.771 62.78 213.111 63.08 212.618 63.68C212.125 64.28 211.831 65.0533 211.738 66H217.318C217.225 65.0267 216.951 64.2467 216.498 63.66C216.058 63.0733 215.425 62.78 214.598 62.78ZM224.75 61.56H227.63V63.08H224.75V69.06C224.75 69.5533 224.857 69.9533 225.07 70.26C225.297 70.5533 225.624 70.7 226.05 70.7C226.344 70.7 226.604 70.6733 226.83 70.62C227.07 70.5533 227.337 70.4533 227.63 70.32V71.88C227.324 72.0267 227.03 72.12 226.75 72.16C226.47 72.2133 226.13 72.24 225.73 72.24C224.877 72.24 224.204 71.9667 223.71 71.42C223.23 70.8733 222.99 70.1467 222.99 69.24V63.08H220.99V61.56H222.99V58.76L224.75 57.84V61.56ZM231.298 59.2C230.925 59.2 230.618 59.08 230.378 58.84C230.151 58.6 230.038 58.2933 230.038 57.92C230.038 57.5467 230.151 57.24 230.378 57C230.618 56.76 230.925 56.64 231.298 56.64C231.671 56.64 231.971 56.76 232.198 57C232.438 57.24 232.558 57.5467 232.558 57.92C232.558 58.2933 232.438 58.6 232.198 58.84C231.971 59.08 231.671 59.2 231.298 59.2ZM232.178 61.56V72H230.418V61.56H232.178ZM240.104 72.24C239.13 72.24 238.277 72.0067 237.544 71.54C236.81 71.0733 236.25 70.4333 235.864 69.62C235.477 68.7933 235.284 67.86 235.284 66.82C235.284 65.7667 235.477 64.8267 235.864 64C236.25 63.16 236.81 62.5067 237.544 62.04C238.277 61.56 239.137 61.32 240.124 61.32C240.817 61.32 241.424 61.3933 241.944 61.54C242.464 61.6867 242.957 61.9533 243.424 62.34V64.04H243.344C242.864 63.64 242.364 63.3533 241.844 63.18C241.337 63.0067 240.757 62.92 240.104 62.92C239.157 62.92 238.424 63.2867 237.904 64.02C237.397 64.7533 237.144 65.6933 237.144 66.84C237.144 67.9467 237.397 68.86 237.904 69.58C238.424 70.2867 239.15 70.64 240.084 70.64C240.777 70.64 241.397 70.5333 241.944 70.32C242.49 70.0933 243.03 69.74 243.564 69.26H243.644V70.96C243.15 71.4267 242.617 71.76 242.044 71.96C241.484 72.1467 240.837 72.24 240.104 72.24ZM249.704 72.24C249.064 72.24 248.431 72.1467 247.804 71.96C247.191 71.76 246.611 71.48 246.064 71.12V69.28C247.278 70.2133 248.478 70.68 249.664 70.68C250.358 70.68 250.918 70.54 251.344 70.26C251.771 69.9667 251.984 69.58 251.984 69.1C251.984 68.7667 251.878 68.4933 251.664 68.28C251.464 68.0667 251.211 67.9 250.904 67.78C250.598 67.66 250.158 67.5133 249.584 67.34C248.878 67.14 248.291 66.9467 247.824 66.76C247.371 66.56 246.984 66.2733 246.664 65.9C246.344 65.5133 246.184 65.0133 246.184 64.4C246.184 63.4667 246.538 62.72 247.244 62.16C247.951 61.6 248.878 61.32 250.024 61.32C251.171 61.32 252.211 61.62 253.144 62.22V64C252.624 63.6 252.118 63.3133 251.624 63.14C251.144 62.9667 250.638 62.88 250.104 62.88C249.438 62.88 248.911 63 248.524 63.24C248.138 63.48 247.944 63.8133 247.944 64.24C247.944 64.5467 248.044 64.8 248.244 65C248.458 65.2 248.718 65.36 249.024 65.48C249.331 65.6 249.771 65.7467 250.344 65.92C251.064 66.1333 251.651 66.34 252.104 66.54C252.558 66.7267 252.944 67.02 253.264 67.42C253.584 67.8067 253.744 68.3133 253.744 68.94C253.744 69.58 253.571 70.1533 253.224 70.66C252.878 71.1533 252.398 71.54 251.784 71.82C251.171 72.1 250.478 72.24 249.704 72.24Z" fill="#83665B"/>
<defs>
<clipPath id="paint0_diamond_2001_746_clip_path"><path d="M48.384 12.696V14.616C43.008 15 42.496 15.384 42.496 20.824V46.872C42.496 52.376 43.008 52.696 48.384 53.144V55H30.464V53.144C36.032 52.696 36.608 52.376 36.608 46.872V34.008H14.272V46.872C14.272 52.312 14.848 52.696 20.224 53.144V55H2.688V53.144C7.872 52.696 8.448 52.376 8.448 46.872V20.824C8.448 15.384 7.872 15 2.496 14.616V12.696H19.904V14.616C14.848 15 14.272 15.384 14.272 20.824V31.256H36.608V20.824C36.608 15.384 36.032 15 30.912 14.616V12.696H48.384ZM77.9205 52.376L72.1605 55.768C71.1365 55.768 69.7285 55.192 69.0245 54.488C68.1285 53.656 67.6805 52.696 67.4245 51.672C64.8645 53.4 61.7285 55.768 59.7445 55.768C55.0085 55.768 51.8085 51.864 51.8085 47.768C51.8085 44.632 53.4725 42.584 57.1205 41.368C61.1525 40.088 65.8245 38.296 67.2965 37.144V35.992C67.2965 31.32 65.1205 28.76 61.8565 28.76C60.7045 28.76 59.6805 29.208 58.9765 29.912C58.2085 30.808 57.6325 32.28 57.0565 34.264C56.7365 35.352 56.0965 35.864 55.0085 35.864C53.7925 35.864 52.1285 34.52 52.1285 32.984C52.1285 32.088 52.8965 31.32 54.1765 30.36C56.0965 29.016 60.4485 26.52 64.0965 25.752C66.1445 25.752 68.0645 26.328 69.6005 27.544C71.9045 29.464 72.5445 32.152 72.5445 35.608V47.448C72.5445 50.456 73.7605 51.352 74.9125 51.352C75.6805 51.352 76.5765 51.032 77.2165 50.712L77.9205 52.376ZM67.2965 49.56V39.384C65.8885 40.152 63.0085 41.368 61.6645 42.008C59.1045 43.16 57.6965 44.44 57.6965 46.808C57.6965 50.2 60.3205 51.736 62.2405 51.736C63.8405 51.736 66.0805 50.712 67.2965 49.56ZM112.489 51.608V53.336C111.081 53.592 105.961 54.424 101.993 55.768V51.544L98.0885 53.912C95.5285 55.384 93.8005 55.768 93.0325 55.768C87.7205 55.768 80.8085 51.032 80.8085 41.88C80.8085 32.856 88.7445 25.752 97.7045 25.752C98.6645 25.752 100.457 25.944 101.993 26.456V17.368C101.993 13.144 101.609 12.952 97.0005 12.568V10.968C100.521 10.52 105.001 9.56 107.497 8.728V47.384C107.497 50.84 107.945 51.224 110.441 51.416L112.489 51.608ZM101.993 49.496V31.64C100.457 29.336 97.7685 28.312 95.4005 28.312C92.4565 28.312 87.0165 30.68 87.0165 40.152C87.0165 47.896 91.8165 51.608 95.9765 51.608C98.2165 51.608 100.457 50.584 101.993 49.496ZM141.921 52.376L136.161 55.768C135.137 55.768 133.729 55.192 133.025 54.488C132.128 53.656 131.681 52.696 131.425 51.672C128.865 53.4 125.729 55.768 123.745 55.768C119.009 55.768 115.809 51.864 115.809 47.768C115.809 44.632 117.473 42.584 121.121 41.368C125.153 40.088 129.825 38.296 131.297 37.144V35.992C131.297 31.32 129.121 28.76 125.857 28.76C124.705 28.76 123.681 29.208 122.977 29.912C122.209 30.808 121.633 32.28 121.057 34.264C120.737 35.352 120.097 35.864 119.009 35.864C117.793 35.864 116.129 34.52 116.129 32.984C116.129 32.088 116.897 31.32 118.177 30.36C120.097 29.016 124.449 26.52 128.097 25.752C130.145 25.752 132.065 26.328 133.601 27.544C135.905 29.464 136.545 32.152 136.545 35.608V47.448C136.545 50.456 137.761 51.352 138.913 51.352C139.681 51.352 140.577 51.032 141.217 50.712L141.921 52.376ZM131.297 49.56V39.384C129.889 40.152 127.009 41.368 125.665 42.008C123.105 43.16 121.697 44.44 121.697 46.808C121.697 50.2 124.321 51.736 126.241 51.736C127.841 51.736 130.081 50.712 131.297 49.56ZM163.181 33.88L161.453 34.328C160.173 30.488 157.933 27.928 154.733 27.928C152.237 27.928 150.573 29.72 150.573 32.28C150.573 35.032 153.133 36.632 156.013 37.784C161.005 39.768 164.333 42.136 164.333 46.744C164.333 52.696 158.765 55.768 153.517 55.768C150.125 55.768 147.053 54.552 145.901 53.656C145.453 52.696 144.877 48.152 144.813 45.72L146.605 45.464C147.757 49.816 150.701 53.592 154.669 53.592C156.973 53.592 159.213 51.8 159.213 49.176C159.213 46.36 157.421 44.888 154.093 43.288C150.189 41.56 145.837 39.32 145.837 34.264C145.837 29.656 149.741 25.752 155.821 25.752C158.637 25.752 160.365 26.328 161.773 26.968C162.349 28.376 163.053 32.344 163.181 33.88ZM187.056 33.88L185.328 34.328C184.048 30.488 181.808 27.928 178.608 27.928C176.112 27.928 174.448 29.72 174.448 32.28C174.448 35.032 177.008 36.632 179.888 37.784C184.88 39.768 188.208 42.136 188.208 46.744C188.208 52.696 182.64 55.768 177.392 55.768C174 55.768 170.928 54.552 169.776 53.656C169.328 52.696 168.752 48.152 168.688 45.72L170.48 45.464C171.632 49.816 174.576 53.592 178.544 53.592C180.848 53.592 183.088 51.8 183.088 49.176C183.088 46.36 181.296 44.888 177.968 43.288C174.064 41.56 169.712 39.32 169.712 34.264C169.712 29.656 173.616 25.752 179.696 25.752C182.512 25.752 184.24 26.328 185.648 26.968C186.224 28.376 186.928 32.344 187.056 33.88ZM219.108 52.376L213.348 55.768C212.324 55.768 210.916 55.192 210.212 54.488C209.316 53.656 208.868 52.696 208.612 51.672C206.052 53.4 202.916 55.768 200.932 55.768C196.196 55.768 192.996 51.864 192.996 47.768C192.996 44.632 194.66 42.584 198.308 41.368C202.34 40.088 207.012 38.296 208.484 37.144V35.992C208.484 31.32 206.308 28.76 203.044 28.76C201.892 28.76 200.868 29.208 200.164 29.912C199.396 30.808 198.82 32.28 198.244 34.264C197.924 35.352 197.284 35.864 196.196 35.864C194.98 35.864 193.316 34.52 193.316 32.984C193.316 32.088 194.084 31.32 195.364 30.36C197.284 29.016 201.636 26.52 205.284 25.752C207.332 25.752 209.252 26.328 210.788 27.544C213.092 29.464 213.732 32.152 213.732 35.608V47.448C213.732 50.456 214.948 51.352 216.1 51.352C216.868 51.352 217.764 51.032 218.404 50.712L219.108 52.376ZM208.484 49.56V39.384C207.076 40.152 204.196 41.368 202.852 42.008C200.292 43.16 198.884 44.44 198.884 46.808C198.884 50.2 201.508 51.736 203.428 51.736C205.028 51.736 207.268 50.712 208.484 49.56ZM253.669 55H239.653V53.272C243.365 52.952 243.941 52.44 243.941 48.216V37.528C243.941 32.216 241.765 29.592 237.541 29.592C235.237 29.592 232.741 30.744 230.949 32.856V48.216C230.949 52.376 231.269 52.952 235.109 53.272V55H220.965V53.272C224.869 52.952 225.445 52.504 225.445 48.216V17.24C225.445 13.144 225.253 12.888 221.029 12.504V10.968C224.165 10.52 228.26 9.56 230.949 8.728V30.488C233.253 28.184 236.773 25.752 240.293 25.752C245.605 25.752 249.381 29.08 249.381 37.016V48.216C249.381 52.504 249.829 52.952 253.669 53.272V55Z"/></clipPath><linearGradient id="paint0_diamond_2001_746" x1="0" y1="0" x2="500" y2="500" gradientUnits="userSpaceOnUse">
<stop stop-color="#DA8B80"/>
<stop offset="1" stop-color="#666666"/>
</linearGradient>
</defs>
</svg>
