<svg width="22" height="22" viewBox="0 0 22 22" fill="none" xmlns="http://www.w3.org/2000/svg">
<circle cx="10.5" cy="10.5" r="10" stroke="#83665B"/>
<path d="M17.4861 17.5139C17.3977 17.6023 17.3094 17.6906 17.221 17.779C17.2582 17.8752 17.2983 17.9683 17.3414 18.0586C17.5138 18.4195 17.7333 18.7333 18 19C18.9333 19.9333 19.9308 20.8025 20.9925 21.6075C21.0683 21.665 21.1445 21.7222 21.221 21.779C21.3094 21.6906 21.3977 21.6023 21.4861 21.5139C21.4293 21.4374 21.3721 21.3612 21.3146 21.2854C20.5096 20.2237 19.6404 19.2262 18.7071 18.2929C18.4404 18.0262 18.1266 17.8067 17.7657 17.6343C17.6754 17.5912 17.5823 17.5511 17.4861 17.5139Z" fill="#83665B"/>
</svg>
